# xmcd
#
# Track frame offsets:
#	150
#	11007
#	24617
#	35247
#	49457
#	59945
#	71892
#	80667
#	95475
#	111580
#	121975
#	131000
#	142912
#
# Disc length: 2136 seconds
#
# Revision: 0
# Processed by: cddbd v1.4PL0 Copyright (c) Steve Scherf et al.
# Submitted via: dBpowerAMP V4.0
#
DISCID=ce08560d
DTITLE=Flying W Wranglers - Branded By The Lord
DYEAR=1900
DGENRE=Gospel
TTITLE0=Cowboy Camp Meeting
TTITLE1=Wandering Shepherd
TTITLE2=I Saw The Light
TTITLE3=Amazing Grace
TTITLE4=The Place Where I Worship
TTITLE5=Swing Low Sweet Chariot
TTITLE6=The Lord's Prayer
TTITLE7=The Masters Call
TTITLE8=Farther Along
TTITLE9=I'll Fly Away
TTITLE10=Woodsman's Prayer
TTITLE11=Cowboy's Prayer
TTITLE12=Will The Circle Be Unbroken
EXTD=
EXTT0=
EXTT1=
EXTT2=
EXTT3=
EXTT4=
EXTT5=
EXTT6=
EXTT7=
EXTT8=
EXTT9=
EXTT10=
EXTT11=
EXTT12=
PLAYORDER=
